<svg viewBox="0 0 110 48.56" xmlns="http://www.w3.org/2000/svg"><g fill="#fff"><path d="m77.18 33.33c0-.26-.27-.36-.81-.3a9.46 9.46 0 0 1 -2.17-.03c-1.81-.31-2.17-.59-3.36-.26a4.15 4.15 0 0 0 -2.13 1.74 3.15 3.15 0 0 1 -.65.53c-2.31.99-5.06.99-7.57 1.84a6 6 0 0 1 1.07-2.46c.47-.7 4.17-4.68 4.89-6.59.43-1.13 1.32-3.43 1.61-4.23.19-.52.37-1.63.93-3.14a10.25 10.25 0 0 1 1.07-2.22s.35-.45.29-.53-.33.09-.33.09a12.3 12.3 0 0 0 -1.64 1.62c-.88 1.05-.89 1.55-.89 1.55a1.72 1.72 0 0 1 -.09-.84 2.86 2.86 0 0 1 .33-.88c-.06-.1-.34.11-.34.11a7.45 7.45 0 0 0 -1.78 2.22 47.5 47.5 0 0 1 -5.39 7.07 58.41 58.41 0 0 1 -5.22 4.88 54.48 54.48 0 0 1 -6.71-9.38 100.81 100.81 0 0 1 -8.52-18.87 43 43 0 0 1 -1.19-4.48s0-.05 0-.06c0-.3-.18 0-.18 0a9.36 9.36 0 0 0 -.82 5.44 9.27 9.27 0 0 1 -1.61-3c-.12-.31-.17 0-.17 0a9.72 9.72 0 0 0 .2 4.07 5.3 5.3 0 0 0 -.26 2.62 9.44 9.44 0 0 0 .83 3.26 6.36 6.36 0 0 0 .21 4 16.67 16.67 0 0 0 2 4.1v.71c-.09 3 1.95 5.28 3.39 7.55a17.79 17.79 0 0 1 3 7.79.61.61 0 0 0 .09.29 11.61 11.61 0 0 0 2.74 2.52c-.36.46-1.31 1.66-1.51 1.9a16.82 16.82 0 0 1 -3.22 3.41 3.22 3.22 0 0 1 -1.22.58s.44.6 2.18.63a2.43 2.43 0 0 1 -1.23.42s5 2.91 13.31-1.12c6.41-3.1 9-7.12 13.47-8.87a3.71 3.71 0 0 1 .65-.23 5.62 5.62 0 0 0 3.84-1.93 4.88 4.88 0 0 1 1.15-.56l.23-.08c1.32-.46 1.52-.72 1.5-.85"/><path d="m1.05 26.82a.1.1 0 0 1 .09-.15 3.49 3.49 0 0 0 1.86-.67c1.39-.83 3.13-1.78 4.6-1.43 1.2.28 2 .68 3.15.23 1-.38 1-.55 1.5-.55s.52.15.86.29a1.73 1.73 0 0 1 .63.48.1.1 0 0 1 -.1.16 1 1 0 0 0 -.72.07 1.56 1.56 0 0 1 -.92.2 4.07 4.07 0 0 0 -1.34.55c-.71.32.62.7 1.62 2.75a19.37 19.37 0 0 0 1.84 2.63c0 .07-.65 0-1-.09a7.76 7.76 0 0 1 -3-1.48c-1.44-1.3-2.14-2.09-2.38-2a3.46 3.46 0 0 1 -2.25.19s-.07 0-.08.08a6.52 6.52 0 0 1 -3.24 5c-3.95 2.61-1.47.69-.61-2.45a27.72 27.72 0 0 1 .9-3.13c.19-.44-1.03-.07-1.41-.68z" opacity=".3"/><path d="m96.92 24.55a.1.1 0 0 1 .08-.15 3.35 3.35 0 0 0 1.86-.63c1.4-.83 3.13-1.78 4.61-1.43 1.2.28 2 .68 3.14.22 1-.38 1-.54 1.5-.54s.53.14.87.29a1.59 1.59 0 0 1 .62.48.09.09 0 0 1 -.1.15 1.11 1.11 0 0 0 -.71.07 1.5 1.5 0 0 1 -.93.2 4.39 4.39 0 0 0 -1.34.56c-.71.31.63.7 1.63 2.75a18.48 18.48 0 0 0 1.85 2.63c0 .07-.65 0-1-.09a7.9 7.9 0 0 1 -3-1.48c-1.44-1.3-2.14-2.09-2.38-2a3.43 3.43 0 0 1 -2.27.13s-.07 0-.08.08a6.56 6.56 0 0 1 -3.25 5c-3.94 2.61-1.47.68-.61-2.46a29.1 29.1 0 0 1 .91-3.13c.19-.41-1.02-.04-1.4-.65z" opacity=".3"/><path d="m19.87 35c-.1.25 1.67.14 2.36.34 1.93.54 5.48.52 7-.44s2.15-1.89 2.9-2.14c.51-.17 1.16.1 1.64-.15a2.82 2.82 0 0 1 1.15-.2.14.14 0 0 0 .1-.23 2.85 2.85 0 0 0 -.82-.61c-.29-.14-.43-.71-1.41-.63-.8.06-1.08.63-1.4.8a3.4 3.4 0 0 1 -1.39.36c-.32 0-.63-.07-.63-.14a17.78 17.78 0 0 0 1.21-2.9c.24-1.5-1.58-4.9-2.19-6s-.51 2.09-.65 3.2-.95 2-1 2.55-.34-.79-.63-1.48a12.74 12.74 0 0 0 -2.68-3.24c-1.21-1.08-3.46-3.35-3.8-3.71s-.09 1.7.9 3.63c1.28 2.5.46 3.83.94 5.52.69 2.43 2.64 3.53 2.33 3.72-1.2.68-3.62.95-3.93 1.75z" opacity=".3"/><path d="m81.45 36.89c-.09.21 1.43.12 2 .29 1.65.46 4.7.45 6-.37s1.85-1.62 2.55-1.81c.43-.15 1 .08 1.4-.13a2.51 2.51 0 0 1 1-.18.12.12 0 0 0 .09-.19 2.64 2.64 0 0 0 -.7-.53c-.25-.11-.37-.6-1.21-.53-.69.05-.93.54-1.2.69a2.85 2.85 0 0 1 -1.19.31c-.29 0-.55-.06-.55-.12a15.11 15.11 0 0 0 1-2.49c.2-1.28-1.36-4.2-1.88-5.18s-.43 1.79-.56 2.75-.81 1.73-.86 2.18-.29-.68-.54-1.26a10.7 10.7 0 0 0 -2.3-2.78c-1-.93-3-2.88-3.26-3.19s-.08 1.46.77 3.12c1.1 2.14.39 3.28.8 4.73.59 2.09 2.27 3 2 3.19-1.02.61-3.09.82-3.36 1.5z" opacity=".3"/></g></svg>